<svg class="logo-header-icon " viewBox="0 0 166 42" xmlns="http://www.w3.org/2000/svg" width="166" height="42" fill="none">
            <g clip-path="url(#aa)">
                <g clip-path="url(#bb)">
                    <path fill="#231F20" d="M122.939 12.515c1.92 0 3.214 1.29 3.214 3.213v.52l.46-1.358c.499-1.488 1.731-2.375 3.291-2.375h2.254c1.566 0 2.797.892 3.291 2.38l.582 1.701a60.944 60.944 0 0 0 2.065-1.997c4.614-5.744 4.207-11.705-5.4-14.26-6.635-1.493-16.562 2.026-21.632 10-.436.765-.96 1.502-1.449 2.278.261-.058.533-.097.824-.097h12.5v-.005ZM60.452 18.937a10.714 10.714 0 0 1 2.326-3.519 10.813 10.813 0 0 1 3.568-2.35c1.367-.568 2.884-.854 4.507-.854h.093c-.219-.596-.46-1.23-.602-2.026C67.02 2.007 55.043.892 48.145 1.217c-5.952.95-9.805 4.788-8.303 11.657.034.014.068.029.102.048a3.449 3.449 0 0 1 1.677-.407h12.5c1.92 0 3.214 1.29 3.214 3.213v1.004c0 1.92-1.29 3.213-3.213 3.213h-2.225v4.886a18.04 18.04 0 0 0 7.857.165 13.39 13.39 0 0 1-.121-1.726c0-1.536.276-2.995.828-4.328M162.85 21.312c-1.925-2.312-4.852-3.708-7.979-3.698.209.732.315 1.527.315 2.375 0 .62-.067 1.24-.208 1.847a7.732 7.732 0 0 1-.654 1.803 7.095 7.095 0 0 1-1.13 1.619c-.034.034-.067.072-.101.106l2.413 4.358c.834 1.425.417 2.52.092 3.049-.31.499-1.061 1.328-2.646 1.328h-1.905c-1.386 0-2.53-.679-3.223-1.91l-.024-.049-1.251-2.384v1.134c0 1.92-1.289 3.213-3.213 3.213h-.117c.403.645.887 1.203 1.328 2.123 4.387 5.89 12.816 2.943 17.42.417 4.421-3.199 5.894-8.797.887-15.321M91.763 33.24c-.562.544-1.352.854-2.292.854h-8.817c-1.41 0-2.477-.698-2.947-1.828-.203.141-.412.277-.64.417-.494.31-1.061.592-1.686.839-.611.242-1.3.45-2.036.61-.77.17-1.61.257-2.487.257-1.662 0-3.204-.28-4.58-.833-.79-.32-1.517-.722-2.181-1.193 1.173 5.919 6.756 10.906 15.462 9.467 6.62-1.091 12.393-4.188 15.728-7.741h-1.231c-.94 0-1.73-.31-2.293-.853M26.581 30.885v-4.634a7.22 7.22 0 0 1-2.428 1.697c-.945.407-1.988.61-3.107.61h-1.222v2.327c0 1.92-1.289 3.214-3.213 3.214h-1.629c-1.92 0-3.213-1.29-3.213-3.214V15.728c0-1.919 1.289-3.213 3.213-3.213h6.05c-4.673-3.359-11.343-3.46-16.098 0-5.961 4.338-7.508 13.901.902 20.44 8.414 6.538 19.083 8.084 23.14 4.144.78-.761 1.24-1.793 1.439-3.005h-.625c-1.92 0-3.214-1.29-3.214-3.214"></path>
                    <path fill="#fff" d="M13.61 15.729c0-.917.46-1.377 1.377-1.377h6.063c.868 0 1.663.15 2.38.45.718.301 1.333.728 1.842 1.276a5.993 5.993 0 0 1 1.193 1.953c.286.751.426 1.58.426 2.482 0 .901-.14 1.73-.426 2.49a5.881 5.881 0 0 1-1.193 1.969 5.356 5.356 0 0 1-1.842 1.289c-.717.31-1.512.465-2.38.465h-3.058v4.16c0 .92-.46 1.376-1.377 1.376h-1.628c-.921 0-1.377-.46-1.377-1.377V15.728Zm6.539 7.24c.766 0 1.338-.227 1.716-.687.378-.46.562-1.047.562-1.765 0-.717-.184-1.299-.552-1.74-.369-.44-.921-.664-1.653-.664h-2.23v4.862h2.157v-.005ZM28.418 15.729c0-.917.46-1.377 1.377-1.377h8.467c.921 0 1.377.46 1.377 1.377v1.003c0 .92-.46 1.376-1.377 1.376H32.8v3.258h4.086c.916 0 1.376.46 1.376 1.376v1.003c0 .921-.46 1.377-1.376 1.377H32.8v3.383h5.811c.921 0 1.377.46 1.377 1.377v1.003c0 .921-.46 1.377-1.377 1.377h-8.816c-.921 0-1.377-.46-1.377-1.377V15.728ZM45.678 18.108h-4.057c-.92 0-1.376-.46-1.376-1.376v-1.003c0-.921.46-1.377 1.376-1.377h12.5c.917 0 1.377.46 1.377 1.377v1.003c0 .916-.46 1.376-1.376 1.376h-4.057v12.777c0 .916-.46 1.377-1.377 1.377H47.06c-.92 0-1.376-.46-1.376-1.377V18.108h-.005ZM61.46 23.266c0-1.304.228-2.516.688-3.63a8.76 8.76 0 0 1 1.93-2.919 9.083 9.083 0 0 1 2.966-1.953c1.153-.475 2.423-.712 3.81-.712.683 0 1.318.053 1.904.164.587.112 1.12.247 1.605.412a7.92 7.92 0 0 1 1.28.553c.368.199.683.392.95.577.348.252.547.538.59.862.04.325-.053.674-.29 1.043l-.626 1.027c-.232.383-.508.601-.828.65-.315.048-.67-.044-1.052-.277-.417-.232-.911-.46-1.478-.673a5.127 5.127 0 0 0-1.852-.325c-.901 0-1.667.145-2.302.436a4.497 4.497 0 0 0-1.566 1.154 4.549 4.549 0 0 0-.901 1.628 6.205 6.205 0 0 0-.286 1.89c0 .65.101 1.324.3 1.968.199.645.509 1.222.926 1.73.417.51.945.922 1.58 1.227.635.31 1.386.465 2.254.465.751 0 1.44-.135 2.065-.412.625-.276 1.158-.562 1.59-.862.785-.553 1.43-.466 1.929.252l.702.979c.233.349.34.693.316 1.027-.025.335-.204.635-.538.902-.287.218-.626.45-1.028.703-.402.252-.863.48-1.391.688a11.75 11.75 0 0 1-1.755.528 9.792 9.792 0 0 1-2.094.213c-1.434 0-2.733-.232-3.897-.702-1.158-.466-2.152-1.12-2.966-1.954a8.57 8.57 0 0 1-1.88-2.942c-.437-1.13-.65-2.36-.65-3.693M79.272 15.729c0-.917.46-1.377 1.377-1.377h8.468c.92 0 1.376.46 1.376 1.377v1.003c0 .92-.46 1.376-1.376 1.376h-5.463v3.258h4.086c.916 0 1.377.46 1.377 1.376v1.003c0 .921-.46 1.377-1.377 1.377h-4.086v3.383h5.812c.92 0 1.376.46 1.376 1.377v1.003c0 .921-.46 1.377-1.376 1.377h-8.817c-.92 0-1.377-.46-1.377-1.377V15.728ZM92.68 15.729c0-.917.46-1.377 1.376-1.377h1.953c.751 0 1.304.31 1.653.926l4.411 7.44c.184.3.358.625.523.974.165.354.325.684.475 1.003.165.369.335.727.499 1.076h.049l-.102-1.1a15.49 15.49 0 0 1-.073-1.003 17.374 17.374 0 0 1-.024-.95v-6.99c0-.916.461-1.376 1.377-1.376h1.628c.916 0 1.377.46 1.377 1.377v15.156c0 .921-.461 1.377-1.377 1.377h-1.953c-.737 0-1.28-.31-1.629-.926l-4.435-7.416a14.028 14.028 0 0 1-1.028-1.977 11.245 11.245 0 0 1-.474-1.077h-.049l.102 1.1a19.227 19.227 0 0 1 .102 1.954v6.965c0 .921-.46 1.377-1.377 1.377h-1.628c-.921 0-1.377-.46-1.377-1.377V15.728ZM114.501 18.108h-4.057c-.921 0-1.377-.46-1.377-1.376v-1.003c0-.921.461-1.377 1.377-1.377h12.5c.916 0 1.377.46 1.377 1.377v1.003c0 .916-.461 1.376-1.377 1.376h-4.057v12.777c0 .916-.46 1.377-1.376 1.377h-1.629c-.921 0-1.376-.46-1.376-1.377V18.108h-.005ZM128.354 15.476c.252-.75.765-1.129 1.555-1.129h2.254c.786 0 1.304.378 1.556 1.13l5.186 15.21c.165.484.146.867-.063 1.153-.208.286-.562.427-1.066.427h-1.653c-.785 0-1.304-.383-1.556-1.154l-.751-2.608h-5.588l-.752 2.608c-.218.766-.727 1.154-1.527 1.154h-1.652c-.5 0-.858-.141-1.067-.427-.208-.286-.228-.669-.063-1.154l5.187-15.21Zm4.435 9.52-1.004-3.48a14.98 14.98 0 0 1-.237-.95 20.183 20.183 0 0 0-.238-1.003c-.082-.369-.169-.742-.252-1.13h-.048c-.083.383-.17.761-.252 1.13-.083.32-.16.649-.238 1.003-.073.349-.155.669-.237.95l-1.028 3.48h3.534ZM140.326 15.729c0-.917.46-1.377 1.376-1.377h4.862c.916 0 1.633.034 2.142.102.509.068.955.174 1.343.324a4.92 4.92 0 0 1 2.418 1.915c.592.892.887 1.992.887 3.296a6.19 6.19 0 0 1-.664 2.816 5.206 5.206 0 0 1-.838 1.202c-.335.359-.727.65-1.178.863v.048c.048.068.107.15.175.253.067.082.14.193.213.339.072.14.169.305.291.49l2.554 4.609c.286.484.33.882.136 1.192-.194.31-.558.466-1.091.466h-1.905c-.717 0-1.26-.325-1.628-.98l-2.657-5.06h-2.055v4.658c0 .916-.46 1.377-1.376 1.377h-1.629c-.921 0-1.376-.46-1.376-1.377V15.728Zm6.286 6.737c.703 0 1.256-.19 1.668-.562.407-.374.615-.921.615-1.639 0-.45-.073-.838-.213-1.163-.141-.325-.422-.572-.839-.737-.383-.164-.935-.252-1.652-.252h-1.479v4.358h1.905l-.005-.005Z"></path>
                </g>
            </g>
            <defs>
                <clipPath id="aa">
                    <path fill="#fff" d="M0 0h165.653v42H0z"></path>
                </clipPath>
                <clipPath id="bb">
                    <path fill="#fff" d="M0 0h166v42.087H0z"></path>
                </clipPath>
            </defs>
        </svg>